<svg width="151" height="59" viewBox="0 0 151 59" fill="none" xmlns="http://www.w3.org/2000/svg">
<g clip-path="url(#clip0_2_2763)" filter="url(#filter0_d_2_2763)">
<path d="M4 7.89771V23.6108L13.396 16.3872L4 7.89771Z" fill="#131118"/>
<path d="M4 50.1381L13.396 41.6506L4 34.4325V50.1381Z" fill="#131118"/>
<path d="M21.6191 26.8653L45.2598 7.89734H31.4806L4 29.0224L21.6191 26.8653Z" fill="#131118"/>
<path d="M4 29.0223L31.4806 50.1393H45.2598L21.6191 31.1677L4 29.0223Z" fill="#131118"/>
<path d="M52.6411 9.71947H57.2872V47.9814H52.6411V9.71947ZM72.3187 9.71947H78.058L61.496 27.6479L78.8779 47.9814H73.1386L55.8661 27.7572L72.3187 9.71947Z" fill="#131118"/>
<path d="M87.647 22.8379V47.9814H83.2742V22.8379H87.647ZM95.2447 27.6479C94.6617 27.2106 94.1333 26.9009 93.6596 26.7187C93.1858 26.5001 92.5846 26.3907 91.8558 26.3907C90.7626 26.3907 89.9062 26.6641 89.2868 27.2106C88.6673 27.7572 88.23 28.5043 87.9749 29.4517C87.7563 30.3991 87.647 31.4741 87.647 32.6766H85.6792C85.6792 30.6724 86.0254 28.9051 86.7178 27.3746C87.4465 25.8077 88.3758 24.5688 89.5054 23.6578C90.635 22.7468 91.7829 22.2913 92.949 22.2913C93.86 22.2913 94.6981 22.4188 95.4633 22.6739C96.265 22.8925 96.9938 23.348 97.6497 24.0404L95.2447 27.6479Z" fill="#131118"/>
<path d="M102.01 12.4525C102.01 11.6143 102.302 10.9038 102.885 10.3207C103.504 9.73769 104.215 9.44617 105.016 9.44617C105.855 9.44617 106.565 9.73769 107.148 10.3207C107.731 10.9038 108.023 11.6143 108.023 12.4525C108.023 13.2541 107.731 13.9647 107.148 14.5842C106.565 15.1672 105.855 15.4588 105.016 15.4588C104.215 15.4588 103.504 15.1672 102.885 14.5842C102.302 13.9647 102.01 13.2541 102.01 12.4525ZM102.83 22.8379H107.203V47.9814H102.83V22.8379Z" fill="#131118"/>
<path d="M117.247 40.2744C117.758 41.0396 118.341 41.7502 118.997 42.4061C119.652 43.062 120.4 43.5904 121.238 43.9913C122.112 44.3557 123.06 44.5379 124.08 44.5379C125.319 44.5379 126.285 44.2646 126.977 43.718C127.706 43.1349 128.07 42.3515 128.07 41.3676C128.07 40.493 127.779 39.7642 127.196 39.1812C126.649 38.5617 125.938 38.0515 125.064 37.6507C124.189 37.2134 123.26 36.8126 122.276 36.4482C121.183 36.0109 120.072 35.5007 118.942 34.9177C117.849 34.2982 116.919 33.5148 116.154 32.5673C115.425 31.5834 115.061 30.3627 115.061 28.9051C115.061 27.4111 115.444 26.1721 116.209 25.1882C117.011 24.2044 118.031 23.4756 119.27 23.0018C120.545 22.5281 121.857 22.2913 123.205 22.2913C124.554 22.2913 125.811 22.5099 126.977 22.9472C128.179 23.3845 129.236 23.9675 130.147 24.6963C131.058 25.4251 131.769 26.2632 132.279 27.2106L128.781 29.4517C128.088 28.5043 127.214 27.7208 126.157 27.1013C125.137 26.4818 123.971 26.1721 122.659 26.1721C121.748 26.1721 120.964 26.3725 120.308 26.7734C119.652 27.1742 119.325 27.7937 119.325 28.6318C119.325 29.2877 119.58 29.8708 120.09 30.3809C120.6 30.8911 121.256 31.3466 122.058 31.7474C122.859 32.1483 123.697 32.5309 124.572 32.8953C126.029 33.4783 127.36 34.116 128.562 34.8084C129.765 35.4643 130.712 36.266 131.404 37.2134C132.133 38.1609 132.498 39.3816 132.498 40.8756C132.498 43.062 131.696 44.884 130.093 46.3416C128.526 47.7992 126.449 48.528 123.861 48.528C122.185 48.528 120.673 48.2365 119.325 47.6535C117.976 47.034 116.828 46.2505 115.881 45.3031C114.97 44.3557 114.278 43.39 113.804 42.4061L117.247 40.2744Z" fill="#131118"/>
<path d="M134.428 22.8379H147V26.9374H134.428V22.8379ZM138.528 14.0923H142.9V47.9814H138.528V14.0923Z" fill="#131118"/>
</g>
<defs>
<filter id="filter0_d_2_2763" x="0" y="0" width="151" height="66.1025" filterUnits="userSpaceOnUse" color-interpolation-filters="sRGB">
<feFlood flood-opacity="0" result="BackgroundImageFix"/>
<feColorMatrix in="SourceAlpha" type="matrix" values="0 0 0 0 0 0 0 0 0 0 0 0 0 0 0 0 0 0 127 0" result="hardAlpha"/>
<feOffset dy="4"/>
<feGaussianBlur stdDeviation="2"/>
<feComposite in2="hardAlpha" operator="out"/>
<feColorMatrix type="matrix" values="0 0 0 0 0 0 0 0 0 0 0 0 0 0 0 0 0 0 0.25 0"/>
<feBlend mode="normal" in2="BackgroundImageFix" result="effect1_dropShadow_2_2763"/>
<feBlend mode="normal" in="SourceGraphic" in2="effect1_dropShadow_2_2763" result="shape"/>
</filter>
<clipPath id="clip0_2_2763">
<rect width="143" height="58.1026" fill="white" transform="translate(4)"/>
</clipPath>
</defs>
</svg>
